<svg width="24" height="24" viewBox="0 0 24 24" xmlns="http://www.w3.org/2000/svg">
	<path
		d="M18.5 4H5.5C4.675 4 4 4.675 4 5.5V18.5C4 19.325 4.675 20 5.5 20H18.5C19.325 20 20 19.325 20 18.5V5.5C20 4.675 19.325 4 18.5 4ZM15 6.5C15 6.225 15.225 6 15.5 6H17.5C17.775 6 18 6.225 18 6.5V8.5C18 8.775 17.775 9 17.5 9H15.5C15.225 9 15 8.775 15 8.5V6.5ZM12 9C13.656 9 15 10.344 15 12C15 13.656 13.656 15 12 15C10.344 15 9 13.656 9 12C9 10.344 10.344 9 12 9ZM18 17.5C18 17.775 17.775 18 17.5 18H6.5C6.225 18 6 17.775 6 17.5V11H7.1C7.034 11.322 7 11.656 7 12C7 14.762 9.237 17 12 17C14.763 17 17 14.762 17 12C17 11.656 16.966 11.322 16.9 11H18V17.5Z"
		/>
</svg>
