<!-- Generated by IcoMoon.io -->
<svg version="1.1" xmlns="http://www.w3.org/2000/svg" width="1024" height="1024" viewBox="0 0 1024 1024">
<title></title>
<g id="icomoon-ignore">
</g>
<path fill="#000" d="M421.921 702.13c-26.897 140.97-59.733 276.129-157.011 346.736-30.024-213.086 44.103-373.104 78.52-542.995-58.675-98.77 7.056-297.592 130.838-248.594 152.293 60.262-131.903 367.253 58.874 405.612 199.203 40.022 280.528-345.614 157.003-471.034-178.466-181.082-519.505-4.127-477.562 255.136 10.199 63.397 75.683 82.618 26.163 170.1-114.216-25.323-148.315-115.409-143.922-235.523 7.066-196.574 176.639-334.22 346.722-353.256 215.106-24.085 416.98 78.96 444.851 281.301 31.399 228.38-97.073 475.74-327.091 457.939-62.34-4.844-88.526-35.728-137.387-65.422z"></path>
</svg>
