<!-- Generated by IcoMoon.io -->
<svg version="1.1" xmlns="http://www.w3.org/2000/svg" width="1024" height="1024" viewBox="0 0 1024 1024">
<title></title>
<g id="icomoon-ignore">
</g>
<path fill="#000" d="M712.285 619.791l292.559 292.565c25.542 25.542 25.542 66.949 0 92.489s-66.949 25.542-92.489 0l-292.565-292.559c-64.149 45.682-142.62 72.545-227.373 72.545-216.726 0-392.417-175.69-392.417-392.414 0-216.726 175.69-392.417 392.417-392.417 216.725 0 392.414 175.69 392.414 392.417 0 84.754-26.861 163.224-72.545 227.373zM392.417 654.029c144.481 0 261.613-117.132 261.613-261.613 0-144.484-117.132-261.611-261.613-261.611-144.484 0-261.611 117.127-261.611 261.611 0 144.481 117.127 261.613 261.611 261.613z"></path>
</svg>
