<!-- Generated by IcoMoon.io -->
<svg version="1.1" xmlns="http://www.w3.org/2000/svg" width="1024" height="1024" viewBox="0 0 1024 1024">
<title></title>
<g id="icomoon-ignore">
</g>
<path fill="#000" d="M296.813 664.889c-28.075 24.364-64.723 39.111-104.814 39.111-88.365 0-160-71.635-160-160s71.634-160 160-160c34.341 0 66.153 10.816 92.218 29.235l390.213-225.292c-1.6-9.073-2.431-18.411-2.431-27.943 0-88.365 71.635-160 160-160s160 71.634 160 160c0 88.365-71.635 160-160 160-31.84 0-61.504-9.298-86.425-25.327l-394.977 228.041c0.925 6.963 1.404 14.067 1.404 21.286 0 1.645-0.025 3.277-0.073 4.909l360.879 208.351c29.293-32.691 71.839-53.26 119.193-53.26 88.365 0 160 71.635 160 160s-71.635 160-160 160c-82.252 0-150.002-62.061-158.989-141.913l-376.196-217.196z"></path>
</svg>
