<svg width="24" height="24" viewBox="0 0 24 24" xmlns="http://www.w3.org/2000/svg">
	<path
		d="M20.004 6.537C19.416 6.8 18.782 6.975 18.12 7.053C18.798 6.647 19.317 6.003 19.564 5.237C18.93 5.612 18.226 5.887 17.48 6.034C16.88 5.396 16.027 5 15.083 5C13.27 5 11.802 6.469 11.802 8.281C11.802 8.537 11.83 8.787 11.886 9.028C9.158 8.89 6.739 7.584 5.12 5.597C4.839 6.081 4.676 6.647 4.676 7.247C4.676 8.385 5.254 9.391 6.135 9.978C5.597 9.962 5.091 9.812 4.647 9.569C4.647 9.582 4.647 9.597 4.647 9.61C4.647 11.201 5.778 12.529 7.281 12.829C7.006 12.904 6.715 12.945 6.415 12.945C6.203 12.945 5.999 12.923 5.796 12.886C6.215 14.189 7.427 15.139 8.862 15.167C7.737 16.048 6.324 16.573 4.784 16.573C4.518 16.573 4.259 16.557 4 16.526C5.456 17.46 7.181 18.001 9.034 18.001C15.071 18.001 18.375 12.998 18.375 8.66C18.375 8.516 18.372 8.376 18.366 8.235C19.007 7.776 19.563 7.197 20.003 6.538L20.004 6.537Z"
		/>
</svg>
