<!-- Generated by IcoMoon.io -->
<svg version="1.1" xmlns="http://www.w3.org/2000/svg" width="1024" height="1024" viewBox="0 0 1024 1024">
<title></title>
<g id="icomoon-ignore">
</g>
<path fill="#000" d="M1013.535 283.378c0 0-9.985-70.596-40.771-101.574-38.978-40.771-82.63-41.026-102.599-43.395-143.176-10.433-358.23-10.433-358.23-10.433h-0.384c0 0-214.989 0-358.23 10.433-20.034 2.432-63.62 2.624-102.599 43.395-30.786 30.978-40.579 101.574-40.579 101.574s-10.177 82.822-10.177 165.834v77.637c0 82.822 10.177 165.834 10.177 165.834s9.985 70.596 40.579 101.639c38.978 40.771 90.181 39.427 113.031 43.779 81.989 7.808 348.245 10.177 348.245 10.177s215.245-0.384 358.422-10.625c20.034-2.369 63.62-2.624 102.599-43.395 30.786-30.978 40.771-101.639 40.771-101.639s10.177-82.822 10.177-165.834v-77.637c-0.192-82.822-10.369-165.834-10.369-165.834l-0.065 0.065zM405.882 620.998v-287.826l276.625 144.393-276.625 143.433z"></path>
</svg>
